<?xml version="1.0" standalone="no"?>
<!DOCTYPE svg PUBLIC "-//W3C//DTD SVG 20010904//EN"
 "http://www.w3.org/TR/2001/REC-SVG-20010904/DTD/svg10.dtd">
<svg version="1.0" xmlns="http://www.w3.org/2000/svg"
 width="512.000000pt" height="512.000000pt" viewBox="0 0 512.000000 512.000000"
 preserveAspectRatio="xMidYMid meet">
<metadata>
Created by potrace 1.11, written by Peter Selinger 2001-2013
</metadata>
<g transform="translate(0.000000,512.000000) scale(0.100000,-0.100000)"
fill="#000000" stroke="none">
<path d="M0 2560 l0 -2560 2560 0 2560 0 0 2560 0 2560 -2560 0 -2560 0 0
-2560z m3450 185 l0 -615 513 -2 512 -3 3 -102 3 -103 -721 0 -720 0 0 720 0
720 205 0 205 0 0 -615z m-1420 503 l0 -103 -612 -612 -613 -613 -102 0 -103
0 0 102 0 103 612 612 613 613 102 0 103 0 0 -102z m810 0 l0 -103 -612 -612
-613 -613 -102 0 -103 0 0 102 0 103 612 612 613 613 102 0 103 0 0 -102z"/>
</g>
</svg>
